<?xml version="1.0" encoding="UTF-8" standalone="no"?>
        <svg 
    viewBox="30.15854779411765 -76.611328125 442.7594866071428 60.205078125"
    width="412.60093881302515"
    height="136.81640625"
   xmlns="http://www.w3.org/2000/svg"
   xmlns:svg="http://www.w3.org/2000/svg">
   <path d="M34.57-72.66L34.57-72.66Q29.88-61.23 30.18-47.17L30.18-47.17Q32.23-44.24 36.04-43.36L36.04-43.36Q46.88-43.36 57.13-44.53L57.13-44.53L60.06-41.89Q61.23-32.52 58.01-24.61L58.01-24.61Q50.98-24.02 43.95-23.14L43.95-23.14Q38.67-21.68 34.57-18.75L34.57-18.75Q34.28-16.99 34.57-14.36L34.57-14.36Q38.67-11.72 44.82-12.60L44.82-12.60Q50.98-16.11 58.59-16.70L58.59-16.70Q60.64-7.91 60.64 2.34L60.64 2.34Q62.40 5.27 65.04 7.32L65.04 7.32L70.61 7.32Q73.54 4.98 76.17 1.46L76.17 1.46Q75.29-2.64 77.64-5.57L77.64-5.57Q90.23-1.17 101.07 7.03L101.07 7.03Q109.86 8.50 118.36 6.45L118.36 6.45Q120.12 4.39 119.82 1.46L119.82 1.46Q117.77-0.59 115.72-1.46L115.72-1.46Q110.74-1.46 106.35-1.76L106.35-1.76Q94.63-7.91 83.20-12.89L83.20-12.89Q75.59-14.94 70.02-10.55L70.02-10.55Q67.68-14.94 72.07-18.75L72.07-18.75Q87.01-22.85 102.54-22.85L102.54-22.85Q104.30-21.97 106.05-20.80L106.05-20.80Q108.40-22.27 111.04-23.73L111.04-23.73Q113.96-30.18 116.02-36.91L116.02-36.91L116.02-46.58Q115.14-50.68 112.50-54.20L112.50-54.20Q106.93-55.66 101.37-56.25L101.37-56.25Q85.84-55.96 70.90-54.79L70.90-54.79Q67.38-57.13 63.28-56.84L63.28-56.84Q59.77-54.49 56.25-52.15L56.25-52.15Q49.22-51.27 43.36-53.03L43.36-53.03Q42.48-62.99 45.12-72.36L45.12-72.36Q43.65-75 41.02-76.46L41.02-76.46Q36.91-75.88 34.57-72.66ZM95.21-48.05L95.21-48.05Q100.20-47.75 103.71-45.12L103.71-45.12Q104.30-40.43 104.30-35.16L104.30-35.16Q103.13-33.11 101.07-32.23L101.07-32.23Q84.67-26.66 68.26-28.13L68.26-28.13Q67.97-36.33 68.85-44.24L68.85-44.24Q70.02-46.29 72.66-47.46L72.66-47.46Q83.50-48.34 95.21-48.05ZM43.65-114.26L43.65-114.26Q41.60-111.91 41.89-108.40L41.89-108.40Q43.07-106.64 44.82-104.00L44.82-104.00Q45.41-98.44 45.41-91.99L45.41-91.99Q49.51-77.05 53.91-62.11L53.91-62.11Q56.84-60.06 61.52-60.64L61.52-60.64Q63.57-62.70 63.87-65.92L63.87-65.92Q61.52-68.55 59.77-71.19L59.77-71.19Q56.84-91.70 53.61-112.79L53.61-112.79Q49.22-116.89 43.65-114.26ZM43.07-125.39L43.07-125.39Q40.72-123.05 41.31-118.95L41.31-118.95Q42.19-117.77 44.24-116.60L44.24-116.60Q52.44-117.19 61.23-117.19L61.23-117.19Q67.97-114.55 76.17-113.96L76.17-113.96Q81.74-111.04 87.30-106.05L87.30-106.05Q88.48-98.14 86.13-87.89L86.13-87.89Q81.74-81.74 78.22-75.29L78.22-75.29Q72.07-70.90 66.80-66.21L66.80-66.21Q66.50-62.99 69.43-61.52L69.43-61.52Q75-60.06 81.45-60.64L81.45-60.64Q83.50-61.52 84.67-63.57L84.67-63.57Q84.67-67.09 82.62-69.14L82.62-69.14Q86.13-74.71 91.99-78.52L91.99-78.52Q96.09-86.13 99.61-94.34L99.61-94.34Q99.90-102.83 99.02-110.16L99.02-110.16Q94.04-113.96 90.53-117.77L90.53-117.77Q75-123.05 59.47-127.44L59.47-127.44Q50.10-128.91 43.07-125.39ZM175.20-96.09L175.20-96.09Q168.16-96.39 162.01-95.51L162.01-95.51Q159.08-93.75 157.62-90.82L157.62-90.82Q157.62-88.48 159.08-86.43L159.08-86.43Q164.06-85.25 168.75-83.79L168.75-83.79Q168.46-70.61 168.16-55.96L168.16-55.96Q169.63-43.36 172.27-31.05L172.27-31.05Q175.49-22.85 182.52-16.99L182.52-16.99Q186.04-15.82 190.43-16.11L190.43-16.11Q192.77-17.29 195.12-19.34L195.12-19.34Q196.29-24.02 196.29-29.00L196.29-29.00Q195.12-31.64 192.48-31.64L192.48-31.64Q189.55-27.83 186.62-25.49L186.62-25.49Q183.11-30.18 181.05-35.74L181.05-35.74Q177.83-53.32 176.95-70.31L176.95-70.31Q178.71-78.22 180.47-86.72L180.47-86.72Q185.45-89.36 189.84-93.16L189.84-93.16Q189.84-95.21 190.43-96.97L190.43-96.97Q188.67-99.61 185.45-100.20L185.45-100.20Q179.88-99.32 175.20-96.09ZM219.73-126.56L219.73-126.56Q209.77-123.34 200.10-120.41L200.10-120.41Q195.41-117.77 194.24-113.09L194.24-113.09Q195.70-89.36 196.00-66.21L196.00-66.21Q193.36-63.57 193.07-59.47L193.07-59.47L196.58-55.66Q198.34-39.26 199.22-21.97L199.22-21.97Q201.86-16.41 203.32-10.25L203.32-10.25Q206.84-5.86 212.99-6.15L212.99-6.15Q214.75-8.50 215.92-10.84L215.92-10.84Q216.50-17.87 212.40-22.56L212.40-22.56Q210.06-22.56 208.30-23.44L208.30-23.44Q205.37-40.43 204.20-58.01L204.20-58.01Q210.06-64.45 220.02-65.33L220.02-65.33Q221.78-64.45 222.95-62.70L222.95-62.70Q226.17-29.88 229.10 3.22L229.10 3.22Q231.45 5.57 233.79 8.20L233.79 8.20Q238.48 7.91 240.82 4.10L240.82 4.10Q236.43-13.48 235.25-33.11L235.25-33.11Q239.36-35.45 242.87-31.35L242.87-31.35Q247.56-31.93 251.95-33.40L251.95-33.40Q255.76-36.91 256.64-42.48L256.64-42.48Q255.76-55.08 254.88-67.09L254.88-67.09Q250.49-72.66 245.21-75.59L245.21-75.59Q237.89-76.17 230.57-75.88L230.57-75.88Q227.05-79.39 229.39-83.50L229.39-83.50Q236.13-87.89 237.89-94.92L237.89-94.92Q236.13-97.85 233.50-98.73L233.50-98.73Q221.48-99.90 210.64-96.68L210.64-96.68Q208.89-95.80 207.42-94.04L207.42-94.04Q208.01-92.29 209.18-90.53L209.18-90.53Q214.16-90.23 218.55-87.60L218.55-87.60Q219.14-84.96 218.55-82.03L218.55-82.03Q213.57-76.17 207.42-70.90L207.42-70.90L203.91-70.90Q202.15-84.38 202.44-98.73L202.44-98.73Q203.61-104.88 204.79-111.62L204.79-111.62Q218.55-117.48 234.38-118.07L234.38-118.07Q241.70-118.07 248.44-116.02L248.44-116.02Q254.00-87.30 258.69-56.84L258.69-56.84Q263.09-41.60 269.82-26.95L269.82-26.95Q272.75-23.44 277.44-20.51L277.44-20.51Q282.13-20.21 287.11-20.21L287.11-20.21Q289.75-23.14 292.68-26.37L292.68-26.37Q291.80-33.98 289.45-40.43L289.45-40.43Q287.11-43.95 283.01-43.95L283.01-43.95Q279.79-38.96 282.42-32.81L282.42-32.81Q280.96-31.64 279.49-31.64L279.49-31.64Q274.51-38.96 270.70-46.58L270.70-46.58Q262.79-84.38 257.81-123.34L257.81-123.34Q255.18-125.10 253.13-126.86L253.13-126.86Q236.13-128.32 219.73-126.56ZM234.38-69.14L234.38-69.14Q238.48-69.43 242.29-68.55L242.29-68.55Q246.97-63.87 248.44-56.84L248.44-56.84Q248.44-49.51 248.44-42.48L248.44-42.48Q246.39-38.38 241.70-37.79L241.70-37.79Q234.96-43.07 231.74-49.51L231.74-49.51Q230.27-58.30 231.15-66.50L231.15-66.50Q232.62-68.26 234.38-69.14ZM417.77-77.93L417.77-77.93Q416.31-75 417.19-70.61L417.19-70.61Q426.56-52.44 434.47-32.81L434.47-32.81Q436.52-31.93 439.45-31.64L439.45-31.64Q441.21-32.23 442.38-33.98L442.38-33.98Q443.26-37.79 442.09-41.60L442.09-41.60Q432.42-57.71 427.15-76.76L427.15-76.76Q425.39-78.52 423.34-79.69L423.34-79.69Q419.82-80.27 417.77-77.93ZM354.49-126.56L354.49-126.56Q353.32-124.22 353.91-121.29L353.91-121.29Q361.23-120.41 367.68-116.31L367.68-116.31Q369.73-113.38 370.61-109.28L370.61-109.28Q362.99-107.52 354.79-107.23L354.79-107.23Q353.32-105.76 352.15-104.00L352.15-104.00Q362.11-100.49 372.95-96.68L372.95-96.68Q373.24-95.51 373.24-94.04L373.24-94.04Q360.35-82.32 345.12-74.12L345.12-74.12Q343.36-72.95 343.95-70.61L343.95-70.61Q345.12-69.43 347.17-68.85L347.17-68.85Q360.35-70.90 372.07-70.90L372.07-70.90Q367.38-60.35 361.23-50.68L361.23-50.68Q359.18-48.63 356.84-47.46L356.84-47.46Q354.79-52.15 350.68-54.49L350.68-54.49Q347.75-54.20 345.70-52.44L345.70-52.44Q344.82-49.80 345.12-46.29L345.12-46.29Q342.19-40.14 336.62-35.45L336.62-35.45Q330.47-33.11 324.32-33.11L324.32-33.11Q322.27-33.69 322.27-35.16L322.27-35.16Q326.95-38.38 331.05-42.48L331.05-42.48Q331.35-44.53 329.88-44.82L329.88-44.82Q322.85-42.19 321.09-35.74L321.09-35.74Q317.58-36.04 316.70-39.26L316.70-39.26Q316.70-46.00 318.16-51.86L318.16-51.86Q323.73-64.16 329.00-76.46L329.00-76.46Q333.40-83.50 338.67-89.36L338.67-89.36Q343.07-92.29 347.75-93.75L347.75-93.75Q348.34-96.39 348.34-99.32L348.34-99.32Q330.47-99.90 311.72-96.68L311.72-96.68Q310.25-95.51 309.67-93.75L309.67-93.75Q310.25-91.99 311.72-90.23L311.72-90.23Q320.21-90.23 327.83-89.36L327.83-89.36Q321.39-76.76 313.77-64.45L313.77-64.45Q310.55-55.37 307.62-45.70L307.62-45.70Q306.74-40.14 308.20-34.86L308.20-34.86Q312.89-30.18 319.04-27.25L319.04-27.25Q322.85-26.95 327.25-26.95L327.25-26.95Q327.54-24.61 326.07-21.39L326.07-21.39Q329.30-20.21 332.23-18.16L332.23-18.16Q331.93-8.20 332.23 2.34L332.23 2.34Q335.74 5.86 341.31 8.20L341.31 8.20Q348.34 7.91 354.79 4.98L354.79 4.98Q363.57-2.93 368.26-12.30L368.26-12.30Q380.57-1.17 396.39 5.57L396.39 5.57Q403.71 7.62 410.74 7.32L410.74 7.32Q412.21 4.39 411.91 0.88L411.91 0.88Q406.35-13.18 404.59-29.59L404.59-29.59Q406.64-29.30 409.28-28.13L409.28-28.13Q419.24-18.46 428.91-9.67L428.91-9.67Q431.25-9.38 434.18-9.08L434.18-9.08Q436.52-11.13 435.94-14.94L435.94-14.94Q419.24-28.13 402.54-42.48L402.54-42.48Q401.95-51.56 402.54-60.94L402.54-60.94Q401.37-63.57 398.73-64.45L398.73-64.45Q391.41-61.52 384.08-58.30L384.08-58.30Q382.91-60.35 383.79-62.70L383.79-62.70Q378.52-63.57 375.59-65.63L375.59-65.63Q377.34-71.78 382.32-75.88L382.32-75.88Q403.42-81.45 424.22-87.89L424.22-87.89Q425.68-92.29 422.75-95.21L422.75-95.21Q402.83-89.06 383.50-82.03L383.50-82.03Q382.32-82.91 381.15-83.50L381.15-83.50Q382.91-92.58 386.72-99.90L386.72-99.90Q384.67-102.54 381.45-103.71L381.45-103.71Q379.69-109.57 378.52-114.84L378.52-114.84Q375.29-119.24 372.36-123.05L372.36-123.05Q366.21-126.86 359.77-128.61L359.77-128.61Q356.54-128.61 354.49-126.56ZM395.80-44.53L395.80-44.53Q397.56-24.02 400.78-3.81L400.78-3.81Q399.90-2.34 398.44-1.46L398.44-1.46Q389.65-4.39 382.03-8.79L382.03-8.79Q375.29-13.18 372.36-19.34L372.36-19.34Q384.67-31.05 393.75-45.12L393.75-45.12Q394.92-46.00 395.80-44.53ZM391.11-55.08L391.11-55.08Q391.99-54.49 392.58-52.73L392.58-52.73Q382.03-40.43 370.90-26.66L370.90-26.66Q368.26-28.71 365.63-27.54L365.63-27.54Q363.57-21.68 359.47-16.70L359.47-16.70Q359.47-13.77 360.06-10.84L360.06-10.84Q355.66-4.39 348.05 0L348.05 0L343.07 0Q340.43-10.25 340.72-20.80L340.72-20.80Q344.53-24.61 349.80-26.66L349.80-26.66Q349.80-31.35 345.12-31.64L345.12-31.64Q351.56-35.16 360.35-36.91L360.35-36.91Q361.23-41.31 363.57-45.41L363.57-45.41Q378.22-48.93 391.11-55.08ZM370.31-85.25L370.31-85.25Q372.66-85.84 374.12-83.79L374.12-83.79Q373.54-80.27 370.31-78.22L370.31-78.22Q365.33-75.88 362.11-78.52L362.11-78.52Q366.80-81.45 370.31-85.25Z"/>
    </svg>
        