<svg width="266" height="266" version="1.1" xmlns="http://www.w3.org/2000/svg" xmlns:xlink="http://www.w3.org/1999/xlink"><path d="M124.22-19.06L124.22-19.06Q133.53-20.65 145.24-20.65L145.24-20.65Q156.67-20.39 159.07-19.45Q161.46-18.52 161.73-14.00L161.73-14.00Q162.26-9.48 162.26 6.48L162.26 6.48Q162.26 34.14 164.65 37.60L164.65 37.60Q165.72 39.20 165.98 43.72L165.98 43.72Q166.25 46.65 166.78 47.84Q167.31 49.04 169.71 51.17L169.71 51.17Q174.76 56.22 181.68 55.42L181.68 55.42Q184.87 55.16 186.20 53.56L186.20 53.56Q188.33 51.17 186.47 46.38L186.47 46.38Q183.27 37.07 185.14 37.60L185.14 37.60Q185.93 37.87 187.53 40.00L187.53 40.00Q192.05 47.44 192.05 52.76L192.05 52.76Q192.05 54.63 191.12 56.22Q190.19 57.82 188.46 58.88Q186.73 59.95 184.60 60.21L184.60 60.21Q177.95 61.54 172.90 61.01L172.90 61.01Q171.84 61.01 167.58 57.29L167.58 57.29L163.32 53.83L160.13 56.49Q154.55 62.07 146.83 63.67L146.83 63.67L143.37 64.47L143.91 69.79Q144.70 80.43 148.43 88.94L148.43 88.94Q150.02 93.20 149.36 95.59Q148.69 97.98 146.03 97.45L146.03 97.45Q145.24 97.19 144.70 96.65Q144.17 96.12 143.51 94.13Q142.84 92.13 142.18 89.21Q141.51 86.28 140.45 80.43L140.45 80.43Q136.99 65.27 133 59.95L133 59.95Q130.34 56.75 130.34 55.16L130.34 55.16Q130.34 53.83 131.94 54.09L131.94 54.09L133.80 54.63L133.53 50.90Q131.94 40.00 130.07 37.34L130.07 37.34Q129.28 36.27 126.62 36.80L126.62 36.80Q124.22 37.60 121.56 39.73L121.56 39.73Q119.97 41.06 119.57 42.12Q119.17 43.19 118.90 47.98L118.90 47.98Q118.64 51.70 118.37 53.30Q118.10 54.89 117.71 55.69Q117.31 56.49 116.24 56.49L116.24 56.49Q114.38 56.49 112.78 50.64L112.78 50.64L111.72 47.98L111.72 51.97Q111.72 60.74 113.32 65.53L113.32 65.53Q114.11 67.39 114.65 65.00L114.65 65.00L114.91 62.61Q114.91 60.21 115.71 60.21Q116.51 60.21 117.31 62.34L117.31 62.34Q120.23 69.26 118.37 73.78L118.37 73.78Q117.84 75.64 115.18 75.64L115.18 75.64Q111.19 75.64 109.73 70.45Q108.26 65.27 106.40 45.05L106.40 45.05Q102.68 3.29 101.08 1.69L101.08 1.69Q100.55 1.16 97.89 2.76L97.89 2.76L95.49 4.88L96.03 19.25Q96.56 36.01 98.15 52.23Q99.75 68.46 101.08 71.12L101.08 71.12Q101.61 72.18 101.88 72.18Q102.14 72.18 102.81 71.25Q103.47 70.32 103.74 70.32Q104.01 70.32 104.80 71.38L104.80 71.38Q107.46 74.84 105.07 77.24L105.07 77.24Q103.47 79.10 101.35 78.97Q99.22 78.83 98.15 77.24L98.15 77.24Q94.70 70.05 91.50 34.94L91.50 34.94Q88.58 3.02 90.44-0.17L90.44-0.17Q90.97-1.50 94.30-1.50Q97.62-1.50 98.42-2.56L98.42-2.56Q98.95-3.10 98.69-3.36Q98.42-3.63 97.36-3.63L97.36-3.63Q95.49-3.63 91.77-2.56L91.77-2.56Q85.12-0.70 78.74 0.10L78.74 0.10Q75.81 0.36 75.01-0.97L75.01-0.97Q74.48-2.03 74.88-3.36Q75.28-4.69 76.34-5.22L76.34-5.22Q77.67-5.49 84.59-6.82L84.59-6.82Q92.57-8.42 95.76-9.61Q98.95-10.81 101.08-12.94L101.08-12.94Q103.47-15.60 104.80-14.80L104.80-14.80Q106.13-14.00 110.66-15.86L110.66-15.86Q114.91-17.46 124.22-19.06ZM155.61-14.27L155.61-14.27Q154.01-15.60 146.03-15.33L146.03-15.33Q125.02-15.07 111.19-10.01L111.19-10.01L107.73-8.68L107.73-0.97Q107.73 4.88 108.66 17.12Q109.59 29.36 110.39 32.02L110.39 32.02Q110.66 33.08 110.92 33.48Q111.19 33.88 111.85 34.14Q112.52 34.41 113.85 34.68L113.85 34.68Q116.77 35.21 120.50 33.48Q124.22 31.75 125.02 31.75L125.02 31.75Q126.08 31.75 127.15 30.95L127.15 30.95Q128.21 30.15 127.68 26.16L127.68 26.16Q126.62 19.51 125.95 17.65Q125.29 15.79 123.96 15.79L123.96 15.79Q122.09 15.79 119.17 17.12L119.17 17.12Q115.44 18.72 113.58 18.72L113.58 18.72Q111.45 18.72 111.19 17.39L111.19 17.39Q110.66 13.66 118.64 11.27L118.64 11.27Q126.08 9.14 129.01 8.34L129.01 8.34Q134.33 6.75 139.92 4.88L139.92 4.88Q143.91 3.29 145.50 3.42Q147.10 3.55 147.36 5.68L147.36 5.68Q147.90 9.14 138.59 11.80L138.59 11.80L132.73 13.40L133 19.78Q133.27 26.96 134.06 28.03Q134.86 29.09 140.18 29.09L140.18 29.09Q145.77 29.09 150.56 30.15L150.56 30.15Q151.35 30.15 152.68 30.69L152.68 30.69Q156.67 31.48 157.21 29.62Q157.74 27.76 157.47 15.52L157.47 15.52Q157.47 11.27 157.47 8.87L157.47 8.87Q157.21-7.09 156.94-10.28Q156.67-13.47 155.61-14.27ZM158.80 38.93L155.34 37.34Q151.89 35.47 144.44 35.21L144.44 35.21L136.99 34.94L136.99 37.60Q136.99 40.00 138.59 48.24Q140.18 56.49 140.98 57.82L140.98 57.82Q142.04 59.68 146.97 58.48Q151.89 57.29 156.14 54.09L156.14 54.09Q159.33 51.70 160.13 51.70L160.13 51.70Q161.73 51.70 160.13 44.78L160.13 44.78L158.80 38.93Z" stroke="#000" fill="black" /></svg>