<svg width="266" height="266" version="1.1" xmlns="http://www.w3.org/2000/svg" xmlns:xlink="http://www.w3.org/1999/xlink"><path d="M104.54-15.65L104.54-15.65Q106.13-18.31 108.79-14.86L108.79-14.86L110.66-12.46L123.42-12.46Q129.01-12.46 130.87-12.46Q132.73-12.46 134.86-12.20Q136.99-11.93 137.52-11.66Q138.05-11.40 139.65-10.60L139.65-10.60Q141.25-9.80 142.18-9.14Q143.11-8.47 143.77-7.41Q144.44-6.34 145.50-4.48L145.50-4.48Q150.29 4.83 150.56 24.51L150.56 24.51Q150.56 30.90 150.29 32.36Q150.02 33.82 148.69 35.95L148.69 35.95Q147.10 38.61 145.24 39.41L145.24 39.41Q143.37 40.21 135.66 40.74L135.66 40.74Q119.97 42.07 114.65 44.20L114.65 44.20Q113.05 44.73 113.05 48.19L113.05 48.19Q113.05 51.11 113.72 53.90Q114.38 56.70 115.18 56.70Q115.98 56.70 122.89 55.10L122.89 55.10Q139.38 51.38 153.22 51.11L153.22 51.11Q159.87 51.11 161.20 52.18Q162.53 53.24 162.79 59.09L162.79 59.09Q163.06 64.94 160.93 69.73L160.93 69.73Q159.33 73.19 159.47 74.25Q159.60 75.32 161.73 75.32L161.73 75.32Q163.86 75.32 163.32 78.78L163.32 78.78L162.79 80.90L151.62 81.97Q129.81 83.56 129.81 86.76L129.81 86.76Q129.81 87.82 131.94 87.82L131.94 87.82Q133.80 87.82 139.78 90.08Q145.77 92.34 151.49 95.27Q157.21 98.19 159.07 99.79L159.07 99.79Q160.13 100.85 160.00 102.45Q159.87 104.05 158.80 104.84L158.80 104.84Q157.47 105.64 155.34 104.31L155.34 104.31Q145.24 98.19 136.46 95.27L136.46 95.27Q132.73 93.94 130.61 93.94L130.61 93.94L128.21 93.94L128.74 100.06Q129.01 106.44 128.08 107.24Q127.15 108.04 125.82 107.50Q124.49 106.97 123.96 105.64L123.96 105.64Q123.69 104.05 123.69 95.00L123.69 95.00L123.69 85.96L118.90 86.49Q114.65 87.02 109.33 87.02L109.33 87.02L104.80 87.02L104.80 84.89Q104.80 83.56 105.47 83.16Q106.13 82.77 109.59 81.97L109.59 81.97Q115.98 80.90 119.17 80.37L119.17 80.37L123.42 79.57L123.42 75.32Q123.69 70.80 123.42 66.01L123.42 66.01Q122.89 62.02 122.09 61.62Q121.30 61.22 117.04 62.82L117.04 62.82Q111.72 64.68 110.66 63.08L110.66 63.08Q110.12 62.55 109.19 59.09Q108.26 55.63 107.60 51.24Q106.93 46.86 106.67 43.66L106.67 43.66Q106.13 38.88 107.33 38.34Q108.53 37.81 110.12 38.61L110.12 38.61Q111.72 39.41 111.72 39.14Q111.72 38.88 110.12 32.49L110.12 32.49Q106.40 18.66 104.54 2.83Q102.68-12.99 104.54-15.65ZM134.60-6.34L134.60-6.34Q132.73-7.14 126.08-7.41Q119.43-7.67 115.98-7.14L115.98-7.14Q113.32-6.88 112.39-6.61Q111.45-6.34 110.66-5.81Q109.86-5.28 109.73-4.48Q109.59-3.68 109.59-1.82L109.59-1.82Q109.59 0.04 110.26 5.09Q110.92 10.15 111.72 15.20Q112.52 20.26 113.05 22.38L113.05 22.38Q113.85 24.78 116.77 30.50Q119.70 36.22 120.76 36.48L120.76 36.48Q121.56 36.75 133 34.62L133 34.62Q145.24 32.76 145.64 32.76Q146.03 32.76 146.17 30.90Q146.30 29.03 146.03 25.97Q145.77 22.92 145.37 19.06Q144.97 15.20 144.17 11.08Q143.37 6.96 142.58 3.23L142.58 3.23Q141.51-1.29 138.85-3.68L138.85-3.68Q136.19-6.08 134.60-6.34ZM157.47 62.02L157.47 62.02L157.74 56.70L148.96 56.70Q131.40 56.96 129.81 60.16L129.81 60.16Q129.28 60.95 128.74 69.73L128.74 69.73L128.21 78.78L129.81 78.24Q130.87 77.98 135.93 77.71L135.93 77.71Q149.23 76.38 152.15 73.99L152.15 73.99Q156.67 70.80 157.47 62.02Z" stroke="#000" fill="black" /></svg>