<svg width="266" height="266" version="1.1" xmlns="http://www.w3.org/2000/svg" xmlns:xlink="http://www.w3.org/1999/xlink"><path d="M129.81-15.07L129.81-15.07Q129.81-16.67 129.81-17.20Q129.81-17.73 130.21-17.87Q130.61-18.00 131.67-18.00L131.67-18.00Q134.86-18.00 136.99-10.55L136.99-10.55Q137.79-7.36 138.19-6.83Q138.59-6.30 140.18-6.56L140.18-6.56Q144.97-7.09 144.97-3.37L144.97-3.37Q144.97-1.51 143.11-0.71L143.11-0.71Q139.65 0.62 139.38 7.00L139.38 7.00Q139.38 10.20 140.98 10.99L140.98 10.99Q142.84 12.06 148.43 12.06L148.43 12.06Q154.28 12.06 154.28 13.65L154.28 13.65Q154.28 14.19 154.15 14.72Q154.01 15.25 153.48 15.65Q152.95 16.05 152.15 16.31Q151.35 16.58 149.63 16.85Q147.90 17.11 146.03 17.38Q144.17 17.64 140.98 17.91L140.98 17.91Q140.45 17.91 140.45 20.30L140.45 20.30Q140.45 21.90 140.71 22.30Q140.98 22.70 142.31 22.70L142.31 22.70Q144.70 22.70 155.88 20.57L155.88 20.57L167.31 18.44L168.38 20.04Q170.51 22.43 168.64 23.76L168.64 23.76Q168.11 24.29 159.20 26.02Q150.29 27.75 145.24 28.28L145.24 28.28Q140.98 28.82 140.18 30.15L140.18 30.15Q139.65 31.48 138.32 37.06Q136.99 42.65 137.12 42.91Q137.26 43.18 144.97 41.58L144.97 41.58Q152.42 39.99 155.34 39.72L155.34 39.72L158.00 39.46L158.27 42.38Q158.80 43.71 158.54 44.64Q158.27 45.57 157.61 46.11Q156.94 46.64 155.08 48.23L155.08 48.23Q149.76 53.02 152.95 53.02L152.95 53.02Q156.67 53.02 155.88 60.47L155.88 60.47Q155.34 64.46 156.41 65.79Q157.47 67.12 161.73 68.72L161.73 68.72Q166.52 70.58 171.30 74.30L171.30 74.30Q178.22 79.09 178.22 76.96L178.22 76.96Q178.22 75.63 168.38 44.51L168.38 44.51Q163.32 28.82 164.92 27.49L164.92 27.49Q165.45 27.22 166.52 27.22L166.52 27.22Q168.38 27.22 169.71 30.15L169.71 30.15Q170.77 33.07 171.57 36.26L171.57 36.26Q172.37 39.99 175.03 47.44L175.03 47.44Q179.28 61.53 181.15 67.39L181.15 67.39Q187.00 86.27 190.72 88.93L190.72 88.93Q193.38 90.79 192.85 92.92Q192.32 95.05 189.13 95.05L189.13 95.05Q186.73 95.05 185.67 92.92L185.67 92.92Q183.01 88.13 179.28 86.54L179.28 86.54Q177.16 85.47 169.97 80.69L169.97 80.69Q157.47 72.17 157.21 75.63L157.21 75.63Q157.21 75.90 157.21 76.16L157.21 76.16Q161.73 95.85 161.73 99.57L161.73 99.57Q161.73 102.23 161.33 102.63Q160.93 103.03 159.07 103.56L159.07 103.56Q156.41 103.83 151.09 103.30L151.09 103.30Q144.17 102.50 138.05 97.71L138.05 97.71Q136.72 96.38 135.53 96.38Q134.33 96.38 129.01 96.91L129.01 96.91Q111.99 98.77 98.42 102.50L98.42 102.50Q92.30 103.83 91.24 102.10Q90.17 100.37 94.96 96.65L94.96 96.65Q98.42 94.25 99.48 91.86Q100.55 89.46 100.02 85.47Q99.48 81.48 98.69 79.36L98.69 79.36Q98.42 78.29 98.02 77.89Q97.62 77.49 96.82 77.36Q96.03 77.23 94.43 76.96L94.43 76.96Q91.50 76.70 90.17 75.63Q88.84 74.57 89.38 72.71L89.38 72.71Q90.17 70.58 93.10 70.58L93.10 70.58Q94.96 70.58 96.16 68.05Q97.36 65.52 98.15 65.26L98.15 65.26Q99.22 64.99 101.08 67.39L101.08 67.39L103.47 69.51L110.66 69.51Q115.98 69.51 117.04 69.65Q118.10 69.78 118.10 70.84L118.10 70.84Q118.37 71.64 117.57 72.31Q116.77 72.97 115.05 73.50Q113.32 74.04 110.39 74.30L110.39 74.30Q106.40 74.83 105.60 75.90L105.60 75.90Q105.07 76.70 105.20 84.81Q105.34 92.92 105.87 93.45L105.87 93.45Q106.13 93.72 108.66 93.45Q111.19 93.19 114.25 92.79Q117.31 92.39 120.50 91.86Q123.69 91.33 125.02 90.79L125.02 90.79Q127.68 90.00 128.61 88.53Q129.54 87.07 129.81 83.35L129.81 83.35Q130.34 80.95 130.87 80.69Q131.40 80.42 132.47 82.02L132.47 82.02Q134.86 84.68 135.39 85.47L135.39 85.47L136.72 87.34L139.12 83.88Q141.25 80.95 144.17 75.90L144.17 75.90Q144.97 74.30 147.90 68.72L147.90 68.72Q149.49 66.32 148.56 65.66Q147.63 64.99 143.91 65.79L143.91 65.79Q139.92 66.32 135.13 66.32L135.13 66.32Q131.94 66.32 131.14 66.19Q130.34 66.06 130.34 65.26L130.34 65.26Q130.61 64.19 135.66 60.47L135.66 60.47Q140.18 57.01 145.24 51.96L145.24 51.96L150.02 47.17L144.17 47.17Q134.33 47.17 134.33 49.03L134.33 49.03Q134.33 50.89 131.80 55.28Q129.28 59.67 126.88 62.33L126.88 62.33Q121.03 68.45 117.31 67.12L117.31 67.12Q116.24 66.85 115.84 66.19Q115.44 65.52 115.84 64.99Q116.24 64.46 117.31 64.46L117.31 64.46Q121.03 64.46 123.42 59.67L123.42 59.67Q124.22 58.08 124.09 57.68Q123.96 57.28 122.63 56.21L122.63 56.21Q120.76 54.62 118.37 52.76L118.37 52.76L115.98 50.63L114.11 52.76Q112.52 54.88 108.53 57.01L108.53 57.01Q104.80 58.87 96.82 58.87Q88.84 58.87 85.92 57.28L85.92 57.28Q81.13 54.62 79.27 48.77L79.27 48.77Q78.20 45.57 79.14 41.32Q80.07 37.06 83.13 31.34Q86.18 25.62 92.04 17.11L92.04 17.11Q98.95 6.47 98.95 6.21L98.95 6.21Q98.69 5.94 95.89 6.07Q93.10 6.21 88.84 6.61Q84.59 7.00 81.66 7.27L81.66 7.27Q77.14 8.07 75.81 7.40Q74.48 6.74 74.48 4.08L74.48 4.08Q74.48 4.08 74.48 3.81L74.48 3.81Q74.48 2.22 76.21 1.82Q77.94 1.42 88.84 0.62L88.84 0.62Q91.50 0.35 93.10 0.35L93.10 0.35Q106.93-0.98 110.92-1.51L110.92-1.51Q114.65-2.04 115.44-1.91Q116.24-1.77 117.04-0.71L117.04-0.71Q119.43 2.22 117.57 3.81L117.57 3.81Q116.77 4.34 112.25 5.94L112.25 5.94Q106.93 7.80 104.80 9.27Q102.68 10.73 98.42 16.05L98.42 16.05Q90.71 26.42 87.51 32.14Q84.32 37.86 84.06 42.91L84.06 42.91Q83.79 45.57 84.19 47.17Q84.59 48.77 85.65 49.83Q86.72 50.89 89.11 51.96L89.11 51.96Q94.16 54.62 100.02 53.82Q105.87 53.02 109.06 49.56L109.06 49.56Q110.66 47.70 109.86 45.04L109.86 45.04Q109.06 40.52 111.99 40.52L111.99 40.52Q113.85 40.52 122.36 47.97L122.36 47.97Q126.62 51.96 127.41 51.96Q128.21 51.96 129.54 48.23L129.54 48.23Q130.61 45.31 132.60 37.59Q134.60 29.88 134.33 29.61L134.33 29.61Q133.80 29.08 118.90 32.27L118.90 32.27Q113.05 33.60 112.25 32.54L112.25 32.54Q109.33 30.41 112.78 28.28L112.78 28.28Q115.71 26.16 129.81 24.29L129.81 24.29Q132.73 23.76 134.20 22.57Q135.66 21.37 135.13 19.77L135.13 19.77Q134.86 17.91 131.94 17.64L131.94 17.64Q128.48 17.11 125.82 16.85L125.82 16.85Q119.17 16.05 119.17 13.65L119.17 13.65Q119.17 10.46 128.21 10.73L128.21 10.73L134.06 10.99L134.06 7.54Q134.06 3.55 133.13 2.75Q132.20 1.95 127.68 1.95L127.68 1.95Q123.96 1.95 123.16 1.68Q122.36 1.42 122.09 0.35L122.09 0.35Q121.56-1.51 122.49-2.44Q123.42-3.37 126.62-3.90L126.62-3.90Q130.61-4.97 131.14-5.63Q131.67-6.30 130.87-9.22L130.87-9.22Q129.81-12.15 129.81-15.07ZM153.48 82.55L153.48 82.55Q151.89 76.16 151.22 75.90Q150.56 75.63 147.10 80.95L147.10 80.95Q144.17 85.47 141.51 88.93L141.51 88.93L139.38 91.86L141.78 93.99Q143.91 96.38 147.36 98.11Q150.82 99.84 153.22 99.57L153.22 99.57L155.34 99.31L155.08 93.99Q155.08 88.67 153.48 82.55Z" stroke="#000" fill="black" /></svg>